<mxfile host="app.diagrams.net" modified="2022-10-20T11:08:09.790Z" agent="5.0 (Macintosh; Intel Mac OS X 10_15_7) AppleWebKit/537.36 (KHTML, like Gecko) Chrome/104.0.0.0 Safari/537.36" etag="cRUFTkLTp9qZuolkCumF" version="20.2.7" type="github">
  <diagram id="rLk2HBGv4uAyEljc5zEf" name="第 1 页">
    <mxGraphModel dx="926" dy="488" grid="1" gridSize="10" guides="1" tooltips="1" connect="1" arrows="1" fold="1" page="1" pageScale="1" pageWidth="827" pageHeight="1169" math="0" shadow="0">
      <root>
        <mxCell id="0" />
        <mxCell id="1" parent="0" />
        <mxCell id="bPhehhSfnNk_FaMgf-cs-12" style="edgeStyle=orthogonalEdgeStyle;rounded=0;orthogonalLoop=1;jettySize=auto;html=1;entryX=0;entryY=0.5;entryDx=0;entryDy=0;" edge="1" parent="1" source="bPhehhSfnNk_FaMgf-cs-1" target="bPhehhSfnNk_FaMgf-cs-4">
          <mxGeometry relative="1" as="geometry" />
        </mxCell>
        <mxCell id="bPhehhSfnNk_FaMgf-cs-1" value="VecOp1" style="ellipse;whiteSpace=wrap;html=1;aspect=fixed;" vertex="1" parent="1">
          <mxGeometry x="140" y="180" width="80" height="80" as="geometry" />
        </mxCell>
        <mxCell id="bPhehhSfnNk_FaMgf-cs-13" style="edgeStyle=orthogonalEdgeStyle;rounded=0;orthogonalLoop=1;jettySize=auto;html=1;entryX=0;entryY=0.5;entryDx=0;entryDy=0;" edge="1" parent="1" source="bPhehhSfnNk_FaMgf-cs-3" target="bPhehhSfnNk_FaMgf-cs-4">
          <mxGeometry relative="1" as="geometry" />
        </mxCell>
        <mxCell id="bPhehhSfnNk_FaMgf-cs-3" value="VecOpN" style="ellipse;whiteSpace=wrap;html=1;aspect=fixed;" vertex="1" parent="1">
          <mxGeometry x="140" y="340" width="80" height="80" as="geometry" />
        </mxCell>
        <mxCell id="bPhehhSfnNk_FaMgf-cs-11" style="edgeStyle=orthogonalEdgeStyle;rounded=0;orthogonalLoop=1;jettySize=auto;html=1;entryX=0;entryY=0.5;entryDx=0;entryDy=0;" edge="1" parent="1" source="bPhehhSfnNk_FaMgf-cs-4" target="bPhehhSfnNk_FaMgf-cs-5">
          <mxGeometry relative="1" as="geometry" />
        </mxCell>
        <mxCell id="bPhehhSfnNk_FaMgf-cs-14" style="edgeStyle=orthogonalEdgeStyle;rounded=0;orthogonalLoop=1;jettySize=auto;html=1;" edge="1" parent="1" source="bPhehhSfnNk_FaMgf-cs-4" target="bPhehhSfnNk_FaMgf-cs-6">
          <mxGeometry relative="1" as="geometry" />
        </mxCell>
        <mxCell id="bPhehhSfnNk_FaMgf-cs-15" style="edgeStyle=orthogonalEdgeStyle;rounded=0;orthogonalLoop=1;jettySize=auto;html=1;entryX=0;entryY=0.5;entryDx=0;entryDy=0;" edge="1" parent="1" source="bPhehhSfnNk_FaMgf-cs-4" target="bPhehhSfnNk_FaMgf-cs-7">
          <mxGeometry relative="1" as="geometry" />
        </mxCell>
        <mxCell id="bPhehhSfnNk_FaMgf-cs-4" value="RecallOp" style="ellipse;whiteSpace=wrap;html=1;aspect=fixed;" vertex="1" parent="1">
          <mxGeometry x="260" y="260" width="80" height="80" as="geometry" />
        </mxCell>
        <mxCell id="bPhehhSfnNk_FaMgf-cs-17" style="edgeStyle=orthogonalEdgeStyle;rounded=0;orthogonalLoop=1;jettySize=auto;html=1;entryX=0;entryY=0.5;entryDx=0;entryDy=0;" edge="1" parent="1" source="bPhehhSfnNk_FaMgf-cs-5" target="bPhehhSfnNk_FaMgf-cs-9">
          <mxGeometry relative="1" as="geometry" />
        </mxCell>
        <mxCell id="bPhehhSfnNk_FaMgf-cs-5" value="CreativeOp" style="ellipse;whiteSpace=wrap;html=1;aspect=fixed;" vertex="1" parent="1">
          <mxGeometry x="390" y="160" width="80" height="80" as="geometry" />
        </mxCell>
        <mxCell id="bPhehhSfnNk_FaMgf-cs-18" style="edgeStyle=orthogonalEdgeStyle;rounded=0;orthogonalLoop=1;jettySize=auto;html=1;entryX=0;entryY=0.5;entryDx=0;entryDy=0;" edge="1" parent="1" source="bPhehhSfnNk_FaMgf-cs-6" target="bPhehhSfnNk_FaMgf-cs-10">
          <mxGeometry relative="1" as="geometry" />
        </mxCell>
        <mxCell id="bPhehhSfnNk_FaMgf-cs-6" value="ReleOp" style="ellipse;whiteSpace=wrap;html=1;aspect=fixed;" vertex="1" parent="1">
          <mxGeometry x="390" y="260" width="80" height="80" as="geometry" />
        </mxCell>
        <mxCell id="bPhehhSfnNk_FaMgf-cs-19" style="edgeStyle=orthogonalEdgeStyle;rounded=0;orthogonalLoop=1;jettySize=auto;html=1;entryX=0.5;entryY=1;entryDx=0;entryDy=0;" edge="1" parent="1" source="bPhehhSfnNk_FaMgf-cs-7" target="bPhehhSfnNk_FaMgf-cs-10">
          <mxGeometry relative="1" as="geometry" />
        </mxCell>
        <mxCell id="bPhehhSfnNk_FaMgf-cs-7" value="SkuRankOP&lt;br&gt;/SpceRankOP" style="ellipse;whiteSpace=wrap;html=1;aspect=fixed;" vertex="1" parent="1">
          <mxGeometry x="390" y="370" width="80" height="80" as="geometry" />
        </mxCell>
        <mxCell id="bPhehhSfnNk_FaMgf-cs-16" style="edgeStyle=orthogonalEdgeStyle;rounded=0;orthogonalLoop=1;jettySize=auto;html=1;" edge="1" parent="1" source="bPhehhSfnNk_FaMgf-cs-9" target="bPhehhSfnNk_FaMgf-cs-10">
          <mxGeometry relative="1" as="geometry" />
        </mxCell>
        <mxCell id="bPhehhSfnNk_FaMgf-cs-9" value="RankOp" style="ellipse;whiteSpace=wrap;html=1;aspect=fixed;" vertex="1" parent="1">
          <mxGeometry x="530" y="160" width="80" height="80" as="geometry" />
        </mxCell>
        <mxCell id="bPhehhSfnNk_FaMgf-cs-10" value="RerankOp" style="ellipse;whiteSpace=wrap;html=1;aspect=fixed;" vertex="1" parent="1">
          <mxGeometry x="640" y="260" width="80" height="80" as="geometry" />
        </mxCell>
      </root>
    </mxGraphModel>
  </diagram>
</mxfile>
